<svg width="24" height="24" viewBox="0 0 24 24" fill="none" xmlns="http://www.w3.org/2000/svg">
<rect width="24" height="24" fill="#1E1E1E"/>
<rect width="1440" height="623" transform="translate(-1234 -99)" fill="white"/>
<path d="M21 12.4V11C21 9.34315 19.6569 8 18 8H13C11.3431 8 10 9.34315 10 11V12.4C10 14.0569 11.3431 15.4 13 15.4H15.5H18C19.6569 15.4 21 14.0569 21 12.4Z" fill="#CBD5E1"/>
<path d="M2.5 15.5V8.5C2.5 7.11929 3.61929 6 5 6C6.38071 6 7.5 7.11929 7.5 8.5V15.5C7.5 16.8807 6.38071 18 5 18C3.61929 18 2.5 16.8807 2.5 15.5Z" fill="#CBD5E1"/>
<path d="M15.5 15.4H18C19.6569 15.4 21 14.0569 21 12.4V11C21 9.34315 19.6569 8 18 8H13C11.3431 8 10 9.34315 10 11V12.4C10 14.0569 11.3431 15.4 13 15.4H15.5ZM15.5 15.4V18M15.5 18H13M15.5 18H18M2.5 8.5V15.5C2.5 16.8807 3.61929 18 5 18C6.38071 18 7.5 16.8807 7.5 15.5V8.5C7.5 7.11929 6.38071 6 5 6C3.61929 6 2.5 7.11929 2.5 8.5Z" stroke="black" stroke-width="2" stroke-linecap="round" stroke-linejoin="round"/>
<path d="M5.5 9H4.5" stroke="#64748B" stroke-width="2" stroke-linecap="round" stroke-linejoin="round"/>
</svg>
