<svg width="24" height="24" viewBox="0 0 24 24" fill="none" xmlns="http://www.w3.org/2000/svg">
<rect width="24" height="24" fill="#1E1E1E"/>
<rect width="1440" height="623" transform="translate(-90 -203)" fill="white"/>
<path fill-rule="evenodd" clip-rule="evenodd" d="M20 6V18C20 19.6569 18.6569 21 17 21H7C5.34315 21 4 19.6569 4 18V6C4 4.34315 5.34315 3 7 3H17C18.6569 3 20 4.34315 20 6ZM16.5 5.5H7.5C6.94772 5.5 6.5 5.94772 6.5 6.5V17.5C6.5 18.0523 6.94772 18.5 7.5 18.5H16.5C17.0523 18.5 17.5 18.0523 17.5 17.5V6.5C17.5 5.94772 17.0523 5.5 16.5 5.5Z" stroke="black" stroke-linecap="round" stroke-linejoin="round"/>
</svg>
