<svg width="24" height="24" viewBox="0 0 24 24" fill="none" xmlns="http://www.w3.org/2000/svg">
<rect width="24" height="24" fill="#1E1E1E"/>
<rect width="1440" height="351" transform="translate(-90 -203)" fill="white"/>
<path d="M8.75781 4.5C9.81852 4.50012 10.8359 4.92184 11.5859 5.67188L11.8281 5.91406C12.2031 6.28903 12.7119 6.49988 13.2422 6.5H17C19.2091 6.5 21 8.29086 21 10.5V14.5H16C14.8954 14.5 14 15.3954 14 16.5C14 17.6046 14.8954 18.5 16 18.5V19.5H7C4.79086 19.5 3 17.7091 3 15.5V8.5C3 6.29086 4.79086 4.5 7 4.5H8.75781ZM21 15.5C21.5523 15.5 22 15.9477 22 16.5C22 17.0523 21.5523 17.5 21 17.5H16C15.4477 17.5 15 17.0523 15 16.5C15 15.9477 15.4477 15.5 16 15.5H21Z" fill="black"/>
</svg>
