<svg width="24" height="24" viewBox="0 0 24 24" fill="none" xmlns="http://www.w3.org/2000/svg">
<rect width="24" height="24" fill="#1E1E1E"/>
<rect width="1440" height="510" transform="translate(-814 -69)" fill="white"/>
<path d="M17 5C19.2091 5 21 6.79086 21 9V15C21 17.2091 19.2091 19 17 19V16C17 15.7239 16.7761 15.5 16.5 15.5C16.2239 15.5 16 15.7239 16 16V19H14V16C14 15.7239 13.7761 15.5 13.5 15.5C13.2239 15.5 13 15.7239 13 16V19H11V16C11 15.7239 10.7761 15.5 10.5 15.5C10.2239 15.5 10 15.7239 10 16V19H8V16C8 15.7239 7.77614 15.5 7.5 15.5C7.22386 15.5 7 15.7239 7 16V19C4.79086 19 3 17.2091 3 15V9C3 6.79086 4.79086 5 7 5H17ZM8.5 9C7.67157 9 7 9.67157 7 10.5C7 11.3284 7.67157 12 8.5 12H15.5C16.3284 12 17 11.3284 17 10.5C17 9.67157 16.3284 9 15.5 9H8.5Z" fill="black"/>
</svg>
